# AST/ASF file generated using VICON BodyLanguage
# -----------------------------------------------
:version 1.10
:name VICON
:units
  mass 1.0
  length 0.45
  angle deg
:documentation
   .ast/.asf automatically generated from VICON data using
   VICON BodyBuilder and BodyLanguage model FoxedUp or BRILLIANT.MOD
:root
   order TX TY TZ RX RY RZ
   axis XYZ
   position 0 0 0  
   orientation 0 0 0 
:bonedata
  begin
     id 1 
     name lhipjoint
     direction 0.621036 -0.695554 0.361275 
     length 2.46325 
     axis 0 0 0  XYZ
  end
  begin
     id 2 
     name lfemur
     direction 0.34202 -0.939693 0  
     length 6.54784  
     axis 0 0 20  XYZ
    dof rx ry rz
    limits (-160.0 20.0)
           (-70.0 70.0)
           (-60.0 70.0)
  end
  begin
     id 3 
     name ltibia
     direction 0.34202 -0.939693 0   
     length 7.84737   
     axis 0 0 20   XYZ
    dof rx
    limits (-10.0 170.0)
  end
  begin
     id 4 
     name lfoot
     direction 0.0790693 -0.217241 0.97291   
     length 2.59747   
     axis -90 7.62852e-016 20   XYZ
    dof rx rz
    limits (-45.0 90.0)
           (-70.0 20.0)
  end
  begin
     id 5 
     name ltoes
     direction 1.53572e-011 -4.21898e-011 1   
     length 1.29919   
     axis -90 7.62852e-016 20   XYZ
    dof rx
    limits (-90.0 20.0)
  end
  begin
     id 6 
     name rhipjoint
     direction -0.602353 -0.708375 0.367935   
     length 2.41867  
     axis 0 0 0  XYZ 
  end
  begin
     id 7 
     name rfemur
     direction -0.34202 -0.939693 0   
     length 6.92065   
     axis 0 0 -20   XYZ
    dof rx ry rz
    limits (-160.0 20.0)
           (-70.0 70.0)
           (-70.0 60.0)
  end
  begin
     id 8 
     name rtibia
     direction -0.34202 -0.939693 0   
     length 7.88883   
     axis 0 0 -20   XYZ
    dof rx
    limits (-10.0 170.0)
 end
 begin
     id 9 
     name rfoot
     direction -0.0768692 -0.211196 0.974416   
     length 2.43714  
     axis -90 -7.62852e-016 -20   XYZ
    dof rx rz
    limits (-45.0 90.0)
           (-20.0 70.0)
  end
  begin
     id 10 
     name rtoes
     direction -1.53575e-011 -4.21933e-011 1   
     length 1.22113   
     axis -90 -7.62852e-016 -20   XYZ
    dof rx
    limits (-90.0 20.0)
  end
  begin
     id 11 
     name lowerback
     direction 0.0197937 0.98943 -0.143655   
     length 2.16931   
     axis 0 0 0   XYZ
    dof rx ry rz
    limits (-20.0 45.0)
           (-30.0 30.0)
           (-30.0 30.0)
  end
  begin
     id 12 
     name upperback
     direction -0.00183968 0.999975 0.00684288   
     length 2.17221   
     axis 0 0 0   XYZ
    dof rx ry rz
    limits (-20.0 45.0)
           (-30.0 30.0)
           (-30.0 30.0)
  end
  begin
     id 13 
     name thorax
     direction -0.00950244 0.997208 0.0740685   
     length 2.22549   
     axis 0 0 0   XYZ
    dof rx ry rz
    limits (-20.0 45.0)
           (-30.0 30.0)
           (-30.0 30.0)
  end
  begin
     id 14 
     name lowerneck
     direction 0.0218238 0.996215 0.0841425   
     length 1.77269   
     axis 0 0 0   XYZ
    dof rx ry rz
    limits (-20.0 45.0)
           (-30.0 30.0)
           (-30.0 30.0)
  end
  begin
     id 15 
     name upperneck
     direction -0.00430652 0.994214 -0.107332   
     length 1.76534   
     axis 0 0 0   XYZ
    dof rx ry rz
    limits (-20.0 45.0)
           (-30.0 30.0)
           (-30.0 30.0)
  end
  begin
     id 16
     name head
     direction -0.00328946 0.998959 -0.0454998  
     length 1.82634  
     axis 0 0 0   XYZ
    dof rx ry rz
    limits (-20.0 45.0)
           (-30.0 30.0)
           (-30.0 30.0)
  end
  begin
     id 17 
     name lclavicle
     direction 0.970962 0.239191 0.00450212  
     length 3.84872  
     axis 0 0 0   XYZ
    dof ry rz
    limits (-20.0 10.0)
           (0.0 20.0)
  end
  begin
     id 18 
     name lhumerus
     direction 1 -4.48966e-011 5.74696e-028   
     length 5.22771   
     axis 180 -30 -90   XYZ
    dof rx ry rz
    limits (-60.0 90.0)
           (-90.0 90.0)
           (-90.0 90.0)
  end
  begin
     id 19
     name lradius
     direction 1 -4.4896e-011 4.25109e-027   
     length 3.45251   
     axis 180 -30 -90   XYZ
    dof rx
    limits (-10.0 170.0)
  end
  begin
     id 20
     name lwrist
     direction 1 -4.48971e-011 1.15382e-027   
     length 1.72626   
     axis -5.52449e-016 90 90   XYZ
    dof ry
    limits (-180.0 0.0)
 end
  begin
     id 21 
     name lhand
     direction 1 -4.49034e-011 2.30765e-027   
     length 0.552119   
     axis -1.47248e-015 90 90   XYZ
    dof rx rz
    limits (-90.0 90.0)
           (-45.0 45.0)
  end
  begin
     id 22 
     name lfingers
     direction 1 -4.48951e-011 4.61529e-027   
     length 0.445133   
     axis -2.94495e-015 90 90   XYZ
    dof rx
    limits (0.0 90.0)
  end
  begin
     id 23
     name lthumb
     direction 0.707107 -6.34991e-011 0.707107   
     length 0.639124   
     axis -90 45 2.85299e-015   XYZ
    dof rx rz
    limits (-45.0 45.0)
           (-45.0 45.0)
  end
  begin
     id 24 
     name rclavicle
     direction -0.97424 0.222511 -0.0366699   
     length 3.73439  
     axis 0 0 0   XYZ 
    dof ry rz
    limits (-10.0 20.0)
           (-20.0 0.0)
  end
  begin
     id 25 
     name rhumerus
     direction -1 -4.48956e-011 -4.97258e-028  
     length 5.2398   
     axis 180 30 90   XYZ
    dof rx ry rz
    limits (-90.0 60.0)
           (-90.0 90.0)
           (-90.0 90.0)
  end
  begin
     id 26 
     name rradius
     direction -1 -4.4897e-011 -1.72611e-027   
     length 3.48042   
     axis 180 30 90   XYZ
    dof rx
    limits (-10.0 170.0)
  end
  begin
     id 27 
     name rwrist
     direction -1 -4.48976e-011 1.15382e-027   
     length 1.74021   
     axis -5.52449e-016 -90 -90   XYZ
    dof ry
    limits (-180.0 0.0)
  end
  begin
     id 28
     name rhand
     direction -1 -4.48963e-011 2.30765e-027   
     length 0.618713   
     axis -1.47248e-015 -90 -90   XYZ
    dof rx rz
    limits (-90.0 90.0)
           (-45.0 45.0)
  end
  begin
     id 29
     name rfingers
     direction -1 -4.4888e-011 4.61529e-027   
     length 0.498823   
     axis -2.94495e-015 -90 -90   XYZ
    dof rx
    limits (0.0 90.0)
  end
  begin
     id 30
     name rthumb
     direction -0.707107 -6.34968e-011 0.707107   
     length 0.716213   
     axis -90 -45 -2.85299e-015   XYZ
    dof rx rz
    limits (-45.0 45.0)
           (-45.0 45.0)
  end
:hierarchy
  begin
    root lhipjoint rhipjoint lowerback
    lhipjoint lfemur
    lfemur ltibia
    ltibia lfoot
    lfoot ltoes
    rhipjoint rfemur
    rfemur rtibia
    rtibia rfoot
    rfoot rtoes
    lowerback upperback
    upperback thorax
    thorax lowerneck lclavicle rclavicle
    lowerneck upperneck
    upperneck head
    lclavicle lhumerus
    lhumerus lradius
    lradius lwrist
    lwrist lhand lthumb
    lhand lfingers
    rclavicle rhumerus
    rhumerus rradius
    rradius rwrist
    rwrist rhand rthumb
    rhand rfingers
  end

#!OML:ASF G:\JayActor3\Patient Classification 1\Patient 1\Session 5\male.ASF
:FULLY-SPECIFIED
:DEGREES
111
root 49.7318 17.5877 -4.55222 -73.3862 85.6004 -74.0278
lowerback 1.68438 -1.5283 3.033
upperback 1.53119 -1.98972 0.392592
thorax 0.536605 -0.964557 -1.27086
lowerneck -8.12767 0.460873 1.82632
upperneck 12.2211 0.263137 1.45628
head 5.01006 0.338531 0.173144
rclavicle -9.29318e-015 -1.19271e-015
rhumerus -34.1602 -6.12976 -84.8966
rradius 30.5404
rwrist 0.0680285
rhand -21.0005 -21.5946
rfingers 7.12502
rthumb 5.37388 -51.5064
lclavicle -9.29318e-015 -1.19271e-015
lhumerus -32.3291 3.28062 83.0197
lradius 27.0876
lwrist 16.7034
lhand -15.5391 12.1739
lfingers 7.12502
lthumb 10.6448 41.8843
rfemur -12.046 2.3221 21.7809
rtibia 34.3442
rfoot 5.46964 -14.1272
rtoes -3.59192
lfemur -0.454678 8.27636 -17.5266
ltibia 17.4078
lfoot 9.95637 2.47389
ltoes -31.117
112
root 49.7067 17.5895 -4.56945 -71.0635 85.5617 -71.7123
lowerback 1.75487 -1.54227 2.92306
upperback 1.53612 -2.00697 0.400489
thorax 0.505319 -0.974478 -1.19915
lowerneck -8.11546 0.502934 1.86947
upperneck 12.2418 0.317297 1.43566
head 5.01466 0.365986 0.163335
rclavicle 5.96354e-015 -2.78299e-015
rhumerus -34.1348 -6.11715 -84.9078
rradius 30.5545
rwrist 0.0349283
rhand -21.0375 -21.7634
rfingers 7.12502
rthumb 5.33817 -51.6762
lclavicle 5.96354e-015 -2.78299e-015
lhumerus -32.2875 3.30517 83.0051
lradius 27.0304
lwrist 16.6419
lhand -15.5001 12.2219
lfingers 7.12502
lthumb 10.6824 41.9303
rfemur -12.3171 2.42488 21.6773
rtibia 34.5407
rfoot 5.63863 -14.2157
rtoes -3.15224
lfemur -0.495591 8.57465 -17.6038
ltibia 17.3064
lfoot 10.0276 2.3827
ltoes -31.1419
113
root 49.6814 17.5918 -4.58743 -68.751 85.508 -69.4144
lowerback 1.81206 -1.55551 2.82977
upperback 1.54218 -2.02372 0.407471
thorax 0.482151 -0.983857 -1.13806
lowerneck -8.12019 0.545842 1.91094
upperneck 12.2731 0.371985 1.41669
head 5.0254 0.393913 0.154437
rclavicle 6.80837e-015 2.38542e-015
rhumerus -34.1009 -6.10427 -84.9237
rradius 30.5568
rwrist -0.00437104
rhand -21.0743 -21.9254
rfingers 7.12502
rthumb 5.30258 -51.8391
lclavicle 6.80837e-015 2.38542e-015
lhumerus -32.241 3.33978 82.9845
lradius 26.9745
lwrist 16.5791
lhand -15.4629 12.2559
lfingers 7.12502
lthumb 10.7183 41.9625
rfemur -12.5844 2.5191 21.5654
rtibia 34.7139
rfoot 5.80471 -14.3001
rtoes -2.55511
lfemur -0.555001 8.89502 -17.6731
ltibia 17.2197
lfoot 10.0998 2.26475
ltoes -31.1871
114
root 49.6561 17.5947 -4.60604 -66.5467 85.4268 -67.2344
lowerback 1.84657 -1.57089 2.76343
upperback 1.55415 -2.04391 0.419336
thorax 0.476947 -0.994429 -1.08772
lowerneck -8.14539 0.590176 1.94452
upperneck 12.3073 0.428039 1.40385
head 5.04054 0.422575 0.148904
rclavicle 1.81143e-014 4.77083e-015
rhumerus -34.0523 -6.08467 -84.9471
rradius 30.5526
rwrist -0.0500637
rhand -21.118 -22.0772
rfingers 7.12502
rthumb 5.2604 -51.9919
lclavicle 1.81143e-014 4.77083e-015
lhumerus -32.1856 3.38887 82.9583
lradius 26.9246
lwrist 16.5199
lhand -15.4242 12.2801
lfingers 7.12502
lthumb 10.7556 41.9847
rfemur -12.8435 2.61055 21.4601
rtibia 34.8578
rfoot 5.96368 -14.3763
rtoes -1.82557
lfemur -0.641978 9.22925 -17.7201
ltibia 17.1607
lfoot 10.1695 2.12569
ltoes -31.2633
115
root 49.6306 17.598 -4.62565 -64.5167 85.3253 -65.2423
lowerback 1.85803 -1.58728 2.72834
upperback 1.56888 -2.06591 0.43383
thorax 0.486501 -1.00544 -1.05284
lowerneck -8.18702 0.634482 1.97687
upperneck 12.3394 0.484191 1.38585
head 5.05783 0.450807 0.142053
rclavicle -3.92103e-014 5.1684e-015
rhumerus -33.9939 -6.06607 -84.9717
rradius 30.5418
rwrist -0.102737
rhand -21.1607 -22.2252
rfingers 7.12502
rthumb 5.21923 -52.1409
lclavicle -3.92103e-014 5.1684e-015
lhumerus -32.1227 3.44583 82.9308
lradius 26.8834
lwrist 16.4649
lhand -15.3918 12.2909
lfingers 7.12502
lthumb 10.7869 41.9939
rfemur -13.0933 2.68527 21.3517
rtibia 34.97
rfoot 6.1243 -14.4185
rtoes -1.03805
lfemur -0.767009 9.5674 -17.7536
ltibia 17.1403
lfoot 10.2286 1.97436
ltoes -31.3693
116
root 49.6049 17.6015 -4.64602 -62.7412 85.1912 -63.5234
lowerback 1.84089 -1.60081 2.7396
upperback 1.58475 -2.08448 0.455942
thorax 0.512092 -1.01415 -1.03698
lowerneck -8.23894 0.675387 1.9976
upperneck 12.3652 0.536041 1.37408
head 5.07486 0.476666 0.138782
rclavicle 2.90474e-014 -3.18055e-015
rhumerus -33.9356 -6.05787 -84.9897
rradius 30.5379
rwrist -0.157942
rhand -21.205 -22.3507
rfingers 7.12502
rthumb 5.17638 -52.2675
lclavicle 2.90474e-014 -3.18055e-015
lhumerus -32.0538 3.50104 82.9085
lradius 26.8538
lwrist 16.4162
lhand -15.3669 12.2939
lfingers 7.12502
lthumb 10.8108 41.9956
rfemur -13.3346 2.74761 21.2567
rtibia 35.0488
rfoot 6.28444 -14.413
rtoes -0.282384
lfemur -0.941331 9.89768 -17.7589
ltibia 17.1694
lfoot 10.2727 1.82797
ltoes -31.4859
117
root 49.5792 17.6045 -4.6673 -61.2178 85.04 -62.0718
lowerback 1.79825 -1.61495 2.78553
upperback 1.60045 -2.10438 0.481679
thorax 0.550686 -1.02307 -1.03754
lowerneck -8.29682 0.717514 2.02399
upperneck 12.3829 0.590263 1.34863
head 5.09048 0.502848 0.130521
rclavicle 1.78906e-014 0
rhumerus -33.8869 -6.05342 -85.0024
rradius 30.5512
rwrist -0.209733
rhand -21.2276 -22.4735
rfingers 7.12502
rthumb 5.15464 -52.3908
lclavicle 1.78906e-014 0
lhumerus -31.9859 3.54833 82.892
lradius 26.8402
lwrist 16.3827
lhand -15.3529 12.287
lfingers 7.12502
lthumb 10.8244 41.9881
rfemur -13.5578 2.78174 21.1597
rtibia 35.097
rfoot 6.45638 -14.3228
rtoes 0.330616
lfemur -1.16273 10.2096 -17.752
ltibia 17.2548
lfoot 10.2927 1.69691
ltoes -31.5982
118
root 49.5538 17.6067 -4.68916 -59.9351 84.873 -60.8765
lowerback 1.73245 -1.62549 2.8648
upperback 1.61282 -2.11998 0.512186
thorax 0.597998 -1.02947 -1.05256
lowerneck -8.36077 0.756101 2.04178
upperneck 12.3963 0.640433 1.32437
head 5.10577 0.526625 0.123798
rclavicle -2.97929e-014 2.34566e-014
rhumerus -33.8547 -6.04736 -85.0085
rradius 30.5836
rwrist -0.284019
rhand -21.2421 -22.6112
rfingers 7.12502
rthumb 5.14055 -52.5289
lclavicle -2.97929e-014 2.34566e-014
lhumerus -31.9232 3.58035 82.8874
lradius 26.8446
lwrist 16.3637
lhand -15.3477 12.2756
lfingers 7.12502
lthumb 10.8294 41.9764
rfemur -13.7601 2.79086 21.0648
rtibia 35.1185
rfoot 6.62937 -14.1312
rtoes 0.664186
lfemur -1.43246 10.4904 -17.7334
ltibia 17.4018
lfoot 10.2821 1.59359
ltoes -31.6943
119
root 49.5287 17.6074 -4.71129 -58.8921 84.7005 -59.9298
lowerback 1.64673 -1.63774 2.96395
upperback 1.62394 -2.13857 0.544962
thorax 0.654445 -1.03705 -1.07693
lowerneck -8.42067 0.798319 2.0764
upperneck 12.3995 0.696387 1.27672
head 5.11738 0.552227 0.107418
rclavicle 2.0276e-014 -5.96354e-015
rhumerus -33.8385 -6.03039 -85.0148
rradius 30.636
rwrist -0.369905
rhand -21.242 -22.7607
rfingers 7.12502
rthumb 5.1407 -52.6784
lclavicle 2.0276e-014 -5.96354e-015
lhumerus -31.8692 3.60115 82.8874
lradius 26.8714
lwrist 16.3594
lhand -15.3464 12.2558
lfingers 7.12502
lthumb 10.8307 41.9565
rfemur -13.9326 2.77722 20.9698
rtibia 35.1235
rfoot 6.77231 -13.8217
rtoes 0.651357
lfemur -1.73838 10.7324 -17.7088
ltibia 17.6042
lfoot 10.237 1.51615
ltoes -31.7729
120
root 49.5038 17.6062 -4.73331 -58.0404 84.5327 -59.1777
lowerback 1.55231 -1.64725 3.07303
upperback 1.62941 -2.15393 0.578388
thorax 0.709754 -1.04295 -1.10642
lowerneck -8.46615 0.837046 2.10919
upperneck 12.3899 0.749942 1.21709
head 5.12266 0.575527 0.0873581
rclavicle 5.7896e-015 -4.37326e-015
rhumerus -33.848 -5.99991 -85.0176
rradius 30.7097
rwrist -0.486395
rhand -21.253 -22.9129
rfingers 7.12502
rthumb 5.13005 -52.8308
lclavicle 5.7896e-015 -4.37326e-015
lhumerus -31.833 3.58591 82.9038
lradius 26.9256
lwrist 16.3828
lhand -15.3471 12.2376
lfingers 7.12502
lthumb 10.83 41.9384
rfemur -14.0697 2.75127 20.8712
rtibia 35.1233
rfoot 6.82358 -13.3851
rtoes 0.35636
lfemur -2.07022 10.9423 -17.6849
ltibia 17.856
lfoot 10.1667 1.4484
ltoes -31.8429
121
root 49.4791 17.6032 -4.75486 -57.3203 84.3825 -58.552
lowerback 1.46149 -1.65802 3.17345
upperback 1.62813 -2.17111 0.608287
thorax 0.756191 -1.05001 -1.13447
lowerneck -8.49547 0.873581 2.14825
upperneck 12.3722 0.801767 1.14608
head 5.12279 0.597376 0.0625271
rclavicle 2.13942e-014 7.95139e-016
rhumerus -33.8856 -5.9562 -85.0209
rradius 30.8029
rwrist -0.622019
rhand -21.257 -23.0859
rfingers 7.12502
rthumb 5.12622 -53.0038
lclavicle 2.13942e-014 7.95139e-016
lhumerus -31.8181 3.55031 82.9257
lradius 27.0049
lwrist 16.4269
lhand -15.3395 12.214
lfingers 7.12502
lthumb 10.8373 41.9144
rfemur -14.166 2.72658 20.7623
rtibia 35.1355
rfoot 6.72521 -12.8344
rtoes -0.11914
lfemur -2.4118 11.1274 -17.6706
ltibia 18.1429
lfoot 10.0697 1.37515
ltoes -31.9133
